<svg width="100%" viewBox="0 0 1120 690" role="img" xmlns="http://www.w3.org/2000/svg"
     style="font-family:'Anthropic Sans', -apple-system, 'system-ui', 'Segoe UI', sans-serif">
<title>Group A — Skeleton Representation</title>
<desc>Top row: the cumulative L0 to L3 node-feature hierarchy, each layer adding features to every joint of the skeleton. Bottom row: two orthogonal alternative representations tested in Group A+, bone vectors and bounding-box normalisation.</desc>

<defs>
  <marker id="arr" viewBox="0 0 10 10" refX="8" refY="5" markerWidth="6.5" markerHeight="6.5" orient="auto-start-reverse">
    <path d="M2 1L8 5L2 9" fill="none" stroke="context-stroke" stroke-width="1.8" stroke-linecap="round" stroke-linejoin="round"/>
  </marker>
  <marker id="arrs" viewBox="0 0 10 10" refX="8" refY="5" markerWidth="5.5" markerHeight="5.5" orient="auto-start-reverse">
    <path d="M2 1L8 5L2 9" fill="none" stroke="context-stroke" stroke-width="1.6" stroke-linecap="round" stroke-linejoin="round"/>
  </marker>

  <!-- skeleton: 14 bones + racket + 15 joints, currentColor (no bbox) -->
  <g id="skel">
    <path d="M0 0L0 21 M0 21L-23 25 M0 21L23 25 M-23 25L-35 53 M-35 53L-39 78
             M23 25L35 41 M35 41L51 16 M0 21L2 74 M2 74L-16 76 M2 74L18 76
             M-16 76L-21 110 M-21 110L-25 145 M18 76L21 113 M21 113L23 147"
          fill="none" stroke="currentColor" stroke-width="5.5" stroke-linecap="round" stroke-linejoin="round"/>
    <line x1="51" y1="16" x2="61" y2="6" stroke="currentColor" stroke-width="2.8"/>
    <ellipse cx="67" cy="0" rx="10.5" ry="7.5" fill="none" stroke="currentColor" stroke-width="2.4"/>
    <g fill="currentColor" stroke="#FFFFFF" stroke-width="1.4">
      <circle cx="0" cy="0" r="8"/>
      <circle cx="0" cy="21" r="5"/>
      <circle cx="-23" cy="25" r="5"/><circle cx="23" cy="25" r="5"/>
      <circle cx="-35" cy="53" r="5"/><circle cx="35" cy="41" r="5"/>
      <circle cx="-39" cy="78" r="5"/><circle cx="51" cy="16" r="5"/>
      <circle cx="2" cy="74" r="5"/>
      <circle cx="-16" cy="76" r="5"/><circle cx="18" cy="76" r="5"/>
      <circle cx="-21" cy="110" r="5"/><circle cx="21" cy="113" r="5"/>
      <circle cx="-25" cy="145" r="5"/><circle cx="23" cy="147" r="5"/>
    </g>
  </g>
</defs>

<!-- ===== Header ===== -->
<text x="560" y="32" text-anchor="middle" font-size="20" font-weight="700" fill="#141413">Group A — Skeleton Representation</text>
<text x="560" y="53" text-anchor="middle" font-size="13" font-style="italic" fill="#6B6B66">Cumulative node-feature depth (L0–L3) and the alternative representations of Group A+</text>

<text x="30" y="68" font-size="12.5" font-weight="700" fill="#3D3D3A">Feature-layer hierarchy — each layer appends to every joint's vector</text>

<!-- ============================================================ -->
<!-- L0 · Position                                                -->
<!-- ============================================================ -->
<rect x="30" y="84" width="248" height="318" rx="6" fill="#FAFAF8" stroke="#E2E1DC" stroke-width="1"/>
<rect x="40" y="73" width="96" height="22" rx="5" fill="#FFFFFF" stroke="#E2E1DC" stroke-width="1"/>
<text x="50" y="88" font-size="12.5" font-weight="600" fill="#3D3D3A">L0 · Position</text>

<use href="#skel" transform="translate(122,108) scale(0.66)" color="#534AB7"/>
<!-- highlight one joint -->
<circle cx="155.7" cy="118.6" r="9" fill="none" stroke="#8B8B85" stroke-width="1.6"/>
<line x1="146.7" y1="118.6" x2="164.7" y2="118.6" stroke="#8B8B85" stroke-width="0.8"/>
<line x1="155.7" y1="109.6" x2="155.7" y2="127.6" stroke="#8B8B85" stroke-width="0.8"/>
<line x1="190" y1="118.6" x2="167" y2="118.6" stroke="#8B8B85" stroke-width="1.2" marker-end="url(#arrs)"/>
<text x="193" y="122" font-size="11" font-weight="600" fill="#5A5A55">(x, y)</text>

<!-- feature chip bar -->
<rect x="58" y="232" width="192" height="15" rx="3" fill="#EEEEE9"/>
<rect x="58" y="232" width="27.4" height="15" rx="3" fill="#8B8B85"/>
<text x="71.7" y="243.5" text-anchor="middle" font-size="8.5" font-weight="600" fill="#FFFFFF">x,y</text>

<text x="154" y="270" text-anchor="middle" font-size="11" font-weight="600" fill="#5A5A55">raw joint coordinates</text>
<text x="154" y="292" text-anchor="middle" font-size="11" fill="#3D3D3A">
  <tspan fill="#8B8B85">[ x, y ]</tspan>
</text>
<rect x="118" y="305" width="72" height="19" rx="9" fill="#EFEFEA"/>
<text x="154" y="318" text-anchor="middle" font-size="10.5" font-weight="600" fill="#5A5A55">2-dim / joint</text>
<text x="154" y="350" text-anchor="middle" font-size="10" font-style="italic" fill="#9A9992">where each joint is</text>

<!-- ============================================================ -->
<!-- L1 · Kinematics                                              -->
<!-- ============================================================ -->
<rect x="300" y="84" width="248" height="318" rx="6" fill="#FAFAF8" stroke="#E2E1DC" stroke-width="1"/>
<rect x="310" y="73" width="112" height="22" rx="5" fill="#FFFFFF" stroke="#E2E1DC" stroke-width="1"/>
<text x="320" y="88" font-size="12.5" font-weight="600" fill="#3D3D3A">L1 · Kinematics</text>

<use href="#skel" transform="translate(392,108) scale(0.66)" color="#534AB7"/>
<!-- velocity / acceleration arrows -->
<g stroke="#2F6FB3">
  <line x1="425.7" y1="118.6" x2="441" y2="109" stroke-width="2" marker-end="url(#arrs)"/>
  <line x1="366.3" y1="159.5" x2="353" y2="170" stroke-width="2" marker-end="url(#arrs)"/>
  <line x1="405.9" y1="182.6" x2="416" y2="194" stroke-width="2" marker-end="url(#arrs)"/>
  <line x1="392" y1="108" x2="398" y2="96" stroke-width="2" marker-end="url(#arrs)"/>
</g>
<text x="455" y="150" font-size="11" font-weight="600" fill="#2F6FB3">v, a</text>
<line x1="452" y1="146" x2="430" y2="135" stroke="#2F6FB3" stroke-width="1" marker-end="url(#arrs)"/>

<rect x="328" y="232" width="192" height="15" rx="3" fill="#EEEEE9"/>
<rect x="328" y="232" width="27.4" height="15" rx="3" fill="#8B8B85"/>
<rect x="355.4" y="232" width="54.9" height="15" rx="3" fill="#2F6FB3"/>
<text x="341.7" y="243.5" text-anchor="middle" font-size="8.5" font-weight="600" fill="#FFFFFF">x,y</text>
<text x="382.8" y="243.5" text-anchor="middle" font-size="8.5" font-weight="600" fill="#FFFFFF">v, a</text>

<text x="424" y="270" text-anchor="middle" font-size="11" font-weight="600" fill="#2F6FB3">+ velocity &amp; acceleration</text>
<text x="424" y="292" text-anchor="middle" font-size="11" fill="#3D3D3A">
  <tspan fill="#8B8B85">[ x, y,</tspan><tspan fill="#2F6FB3"> vx, vy, ax, ay ]</tspan>
</text>
<rect x="388" y="305" width="72" height="19" rx="9" fill="#EFEFEA"/>
<text x="424" y="318" text-anchor="middle" font-size="10.5" font-weight="600" fill="#5A5A55">6-dim / joint</text>
<text x="424" y="350" text-anchor="middle" font-size="10" font-style="italic" fill="#9A9992">how each joint moves</text>

<!-- ============================================================ -->
<!-- L2 · Court context                                           -->
<!-- ============================================================ -->
<rect x="570" y="84" width="248" height="318" rx="6" fill="#FAFAF8" stroke="#E2E1DC" stroke-width="1"/>
<rect x="580" y="73" width="128" height="22" rx="5" fill="#FFFFFF" stroke="#E2E1DC" stroke-width="1"/>
<text x="590" y="88" font-size="12.5" font-weight="600" fill="#3D3D3A">L2 · Court context</text>

<!-- net reference + opponent -->
<line x1="588" y1="104" x2="800" y2="104" stroke="#B7B6AF" stroke-width="1.1" stroke-dasharray="5 4"/>
<text x="797" y="100" text-anchor="end" font-size="9" fill="#9A9992">net</text>
<circle cx="748" cy="120" r="4" fill="#993C1D"/>
<text x="756" y="123" font-size="9" fill="#993C1D">opponent</text>

<use href="#skel" transform="translate(648,116) scale(0.66)" color="#534AB7"/>
<!-- distance lines from hitter centroid -->
<g stroke="#0F6E56" stroke-width="1.3" stroke-dasharray="3.5 3">
  <line x1="649.3" y1="164.8" x2="649.3" y2="106"/>
  <line x1="649.3" y1="164.8" x2="745" y2="122"/>
</g>
<text x="624" y="138" font-size="9.5" font-weight="600" fill="#0F6E56">d_net</text>
<text x="690" y="156" font-size="9.5" font-weight="600" fill="#0F6E56">δ to opp.</text>

<rect x="598" y="232" width="192" height="15" rx="3" fill="#EEEEE9"/>
<rect x="598" y="232" width="27.4" height="15" rx="3" fill="#8B8B85"/>
<rect x="625.4" y="232" width="54.9" height="15" rx="3" fill="#2F6FB3"/>
<rect x="680.3" y="232" width="54.9" height="15" rx="3" fill="#0F6E56"/>
<text x="611.7" y="243.5" text-anchor="middle" font-size="8.5" font-weight="600" fill="#FFFFFF">x,y</text>
<text x="652.8" y="243.5" text-anchor="middle" font-size="8.5" font-weight="600" fill="#FFFFFF">v, a</text>
<text x="707.8" y="243.5" text-anchor="middle" font-size="8.5" font-weight="600" fill="#FFFFFF">court d</text>

<text x="694" y="270" text-anchor="middle" font-size="11" font-weight="600" fill="#0F6E56">+ court distances (metres)</text>
<text x="694" y="292" text-anchor="middle" font-size="11" fill="#3D3D3A">
  <tspan fill="#8B8B85">[ …,</tspan><tspan fill="#0F6E56"> d_net, d_ctr, δ_depth, δ_lat ]</tspan>
</text>
<rect x="658" y="305" width="72" height="19" rx="9" fill="#EFEFEA"/>
<text x="694" y="318" text-anchor="middle" font-size="10.5" font-weight="600" fill="#5A5A55">10-dim / joint</text>
<text x="694" y="350" text-anchor="middle" font-size="10" font-style="italic" fill="#9A9992">where the player is on court</text>

<!-- ============================================================ -->
<!-- L3 · Joint angles                                            -->
<!-- ============================================================ -->
<rect x="840" y="84" width="248" height="318" rx="6" fill="#FAFAF8" stroke="#E2E1DC" stroke-width="1"/>
<rect x="850" y="73" width="122" height="22" rx="5" fill="#FFFFFF" stroke="#E2E1DC" stroke-width="1"/>
<text x="860" y="88" font-size="12.5" font-weight="600" fill="#3D3D3A">L3 · Joint angles</text>

<use href="#skel" transform="translate(932,108) scale(0.66)" color="#534AB7"/>
<!-- angle arcs at elbows and knees -->
<g fill="none" stroke="#C2740F" stroke-width="2.2">
  <path d="M949 113 A 11 11 0 0 1 963 122"/>
  <path d="M903 122 A 11 11 0 0 0 916 132"/>
  <path d="M940 159 A 11 11 0 0 1 953 169"/>
  <path d="M913 158 A 11 11 0 0 0 925 167"/>
</g>
<text x="970" y="112" font-size="11" font-weight="700" fill="#C2740F">θ</text>
<line x1="978" y1="135" x2="962" y2="124" stroke="#C2740F" stroke-width="1" marker-end="url(#arrs)"/>
<text x="980" y="139" font-size="9.5" fill="#C2740F">flexion</text>

<rect x="868" y="232" width="192" height="15" rx="3" fill="#EEEEE9"/>
<rect x="868" y="232" width="27.4" height="15" rx="3" fill="#8B8B85"/>
<rect x="895.4" y="232" width="54.9" height="15" rx="3" fill="#2F6FB3"/>
<rect x="950.3" y="232" width="54.9" height="15" rx="3" fill="#0F6E56"/>
<rect x="1005.1" y="232" width="54.9" height="15" rx="3" fill="#C2740F"/>
<text x="881.7" y="243.5" text-anchor="middle" font-size="8.5" font-weight="600" fill="#FFFFFF">x,y</text>
<text x="922.8" y="243.5" text-anchor="middle" font-size="8.5" font-weight="600" fill="#FFFFFF">v, a</text>
<text x="977.8" y="243.5" text-anchor="middle" font-size="8.5" font-weight="600" fill="#FFFFFF">court d</text>
<text x="1032.6" y="243.5" text-anchor="middle" font-size="8.5" font-weight="600" fill="#FFFFFF">angles</text>

<text x="964" y="270" text-anchor="middle" font-size="11" font-weight="600" fill="#C2740F">+ joint flexion angles</text>
<text x="964" y="292" text-anchor="middle" font-size="11" fill="#3D3D3A">
  <tspan fill="#8B8B85">[ …,</tspan><tspan fill="#C2740F"> θ_elbow ×2, θ_knee ×2 ]</tspan>
</text>
<rect x="928" y="305" width="72" height="19" rx="9" fill="#EAE0CE"/>
<text x="964" y="318" text-anchor="middle" font-size="10.5" font-weight="700" fill="#8A5208">14-dim / joint</text>
<text x="964" y="350" text-anchor="middle" font-size="10" font-style="italic" fill="#9A9992">how the limbs are bent</text>
<text x="964" y="372" text-anchor="middle" font-size="9.5" font-weight="600" fill="#534AB7">← Group A winner (A4)</text>

<!-- cumulative + connectors -->
<g>
  <circle cx="289" cy="239.5" r="11" fill="#FFFFFF" stroke="#C9C8C2" stroke-width="1.2"/>
  <text x="289" y="244" text-anchor="middle" font-size="14" font-weight="700" fill="#8B8B85">+</text>
  <circle cx="559" cy="239.5" r="11" fill="#FFFFFF" stroke="#C9C8C2" stroke-width="1.2"/>
  <text x="559" y="244" text-anchor="middle" font-size="14" font-weight="700" fill="#8B8B85">+</text>
  <circle cx="829" cy="239.5" r="11" fill="#FFFFFF" stroke="#C9C8C2" stroke-width="1.2"/>
  <text x="829" y="244" text-anchor="middle" font-size="14" font-weight="700" fill="#8B8B85">+</text>
</g>

<!-- ============================================================ -->
<!-- Row 2 — alternative representations                          -->
<!-- ============================================================ -->
<text x="30" y="428" font-size="12.5" font-weight="700" fill="#3D3D3A">Alternative representations (Group A+) — orthogonal swaps, <tspan font-style="italic" font-weight="400" fill="#6B6B66">not extra layers</tspan></text>

<!-- A7 Bone vectors -->
<rect x="30" y="444" width="525" height="220" rx="6" fill="#FAFAF8" stroke="#E2E1DC" stroke-width="1"/>
<rect x="40" y="433" width="132" height="22" rx="5" fill="#FFFFFF" stroke="#E2E1DC" stroke-width="1"/>
<text x="50" y="448" font-size="12.5" font-weight="600" fill="#3D3D3A">A7 · Bone vectors</text>

<!-- faint skeleton with bone-vector arrows -->
<use href="#skel" transform="translate(135,485) scale(0.85)" color="#CFCEC8"/>
<g stroke="#C2740F" stroke-width="2.4">
  <line x1="135" y1="502.9" x2="153.6" y2="506.3" marker-end="url(#arrs)"/>
  <line x1="153.6" y1="506.3" x2="164.5" y2="519.9" marker-end="url(#arrs)"/>
  <line x1="164.5" y1="519.9" x2="178.4" y2="498.6" marker-end="url(#arrs)"/>
  <line x1="135" y1="502.9" x2="116.4" y2="506.3" marker-end="url(#arrs)"/>
  <line x1="116.4" y1="506.3" x2="105.5" y2="530.1" marker-end="url(#arrs)"/>
  <line x1="135" y1="502.9" x2="136.7" y2="547.9" marker-end="url(#arrs)"/>
  <line x1="136.7" y1="547.9" x2="152.9" y2="583.9" marker-end="url(#arrs)"/>
  <line x1="136.7" y1="547.9" x2="117.2" y2="581.4" marker-end="url(#arrs)"/>
</g>
<text x="135" y="618" text-anchor="middle" font-size="10" font-style="italic" fill="#9A9992">arrows = child − parent along the COCO tree</text>

<!-- callout -->
<circle cx="330" cy="486" r="5" fill="#993C1D"/>
<text x="330" y="478" text-anchor="middle" font-size="9.5" fill="#6B6B66">parent</text>
<circle cx="392" cy="524" r="5" fill="#534AB7"/>
<text x="403" y="527" font-size="9.5" fill="#6B6B66">child</text>
<line x1="330" y1="486" x2="392" y2="524" stroke="#C2740F" stroke-width="2.6" marker-end="url(#arr)"/>
<text x="350" y="512" font-size="9.5" font-weight="600" fill="#C2740F" transform="rotate(31 350 512)">bone vector</text>

<text x="430" y="478" text-anchor="middle" font-size="11" font-weight="600" fill="#C2740F">node feature = child − parent</text>
<text x="430" y="496" text-anchor="middle" font-size="11" fill="#3D3D3A">= ( Δx, Δy )</text>
<rect x="394" y="506" width="72" height="19" rx="9" fill="#EAE0CE"/>
<text x="430" y="519" text-anchor="middle" font-size="10.5" font-weight="700" fill="#8A5208">2-dim / joint</text>
<text x="430" y="546" text-anchor="middle" font-size="10" fill="#6B6B66">translation-invariant — the</text>
<text x="430" y="560" text-anchor="middle" font-size="10" fill="#6B6B66">vector is the same wherever</text>
<text x="430" y="574" text-anchor="middle" font-size="10" fill="#6B6B66">the player stands on court</text>
<text x="430" y="598" text-anchor="middle" font-size="9.5" font-style="italic" fill="#9A9992">tested as A7 (bones only) and</text>
<text x="430" y="611" text-anchor="middle" font-size="9.5" font-style="italic" fill="#9A9992">A8 (L3 + bones)</text>

<!-- A9 bbox normalisation -->
<rect x="571" y="444" width="519" height="220" rx="6" fill="#FAFAF8" stroke="#E2E1DC" stroke-width="1"/>
<rect x="581" y="433" width="166" height="22" rx="5" fill="#FFFFFF" stroke="#E2E1DC" stroke-width="1"/>
<text x="591" y="448" font-size="12.5" font-weight="600" fill="#3D3D3A">A9 · bbox normalisation</text>

<!-- WITHOUT -->
<text x="687" y="472" text-anchor="middle" font-size="10.5" font-weight="700" fill="#3D3D3A">WITHOUT</text>
<rect x="585" y="478" width="204" height="138" rx="4" fill="#FFFFFF" stroke="#E8E7E2" stroke-width="1"/>
<line x1="585" y1="540" x2="789" y2="540" stroke="#D8D7D1" stroke-width="1" stroke-dasharray="4 4"/>
<!-- small far player -->
<use href="#skel" transform="translate(645,500) scale(0.30)" color="#993C1D"/>
<rect x="630" y="494.6" width="41.4" height="55.5" rx="2" fill="none" stroke="#888780" stroke-width="0.9" stroke-dasharray="3 2"/>
<!-- big near player -->
<use href="#skel" transform="translate(720,540) scale(0.55)" color="#534AB7"/>
<rect x="692.5" y="530.1" width="75.9" height="101.75" rx="2" fill="none" stroke="#888780" stroke-width="1" stroke-dasharray="3 2"/>
<text x="687" y="630" text-anchor="middle" font-size="9.5" fill="#6B6B66">raw coords — skeleton size</text>
<text x="687" y="643" text-anchor="middle" font-size="9.5" fill="#6B6B66">scales with camera distance</text>

<!-- arrow -->
<line x1="800" y1="545" x2="826" y2="545" stroke="#9A9992" stroke-width="1.6" marker-end="url(#arr)"/>
<text x="813" y="536" text-anchor="middle" font-size="9" fill="#9A9992">÷ bbox</text>

<!-- WITH -->
<text x="975" y="472" text-anchor="middle" font-size="10.5" font-weight="700" fill="#3D3D3A">WITH (bbox-norm)</text>
<rect x="838" y="478" width="240" height="138" rx="4" fill="#FFFFFF" stroke="#E8E7E2" stroke-width="1"/>
<!-- two identical unit boxes -->
<rect x="888" y="487" width="64" height="56" rx="2" fill="#EFEEEA" stroke="#888780" stroke-width="1.1"/>
<use href="#skel" transform="translate(920,492) scale(0.30)" color="#993C1D"/>
<rect x="964" y="487" width="64" height="56" rx="2" fill="#EFEEEA" stroke="#888780" stroke-width="1.1"/>
<use href="#skel" transform="translate(996,492) scale(0.30)" color="#534AB7"/>
<text x="920" y="556" text-anchor="middle" font-size="9" fill="#9A9992">opponent</text>
<text x="996" y="556" text-anchor="middle" font-size="9" fill="#9A9992">hitter</text>
<text x="958" y="585" text-anchor="middle" font-size="9.5" fill="#6B6B66">each player rescaled into an</text>
<text x="958" y="598" text-anchor="middle" font-size="9.5" fill="#6B6B66">identical unit box — same dim</text>
<text x="958" y="611" text-anchor="middle" font-size="9.5" fill="#6B6B66">count, scale-invariant coords</text>

<!-- ===== footer ===== -->
<text x="560" y="682" text-anchor="middle" font-size="10.5" fill="#6B6B66">L0–L3 add cumulative depth to every joint's vector  ·  bone vectors and bbox-norm are orthogonal swaps tested in Group A+, not additional layers</text>

</svg>
