<?xml version="1.0" encoding="UTF-8"?>
<svg xmlns="http://www.w3.org/2000/svg" viewBox="0 0 1100 620" font-family="Arial, Helvetica, sans-serif">
  <defs>
    <marker id="arrow" markerWidth="10" markerHeight="7" refX="9" refY="3.5" orient="auto">
      <polygon points="0 0, 10 3.5, 0 7" fill="#333"/>
    </marker>
    <marker id="arrow-grey" markerWidth="10" markerHeight="7" refX="9" refY="3.5" orient="auto">
      <polygon points="0 0, 10 3.5, 0 7" fill="#999"/>
    </marker>
    <!-- Stick figure symbol (neutral pose) -->
    <symbol id="stick" viewBox="0 0 24 40">
      <circle cx="12" cy="5" r="4" fill="none" stroke="currentColor" stroke-width="1.8"/>
      <line x1="12" y1="9" x2="12" y2="24" stroke="currentColor" stroke-width="1.8"/>
      <line x1="4" y1="15" x2="20" y2="15" stroke="currentColor" stroke-width="1.8"/>
      <line x1="12" y1="24" x2="5" y2="36" stroke="currentColor" stroke-width="1.8"/>
      <line x1="12" y1="24" x2="19" y2="36" stroke="currentColor" stroke-width="1.8"/>
    </symbol>
    <!-- Stick figure hitting -->
    <symbol id="stick-hit" viewBox="0 0 30 40">
      <circle cx="12" cy="5" r="4" fill="none" stroke="currentColor" stroke-width="2"/>
      <line x1="12" y1="9" x2="12" y2="24" stroke="currentColor" stroke-width="2"/>
      <line x1="5" y1="18" x2="12" y2="14" stroke="currentColor" stroke-width="2"/>
      <line x1="12" y1="14" x2="20" y2="8" stroke="currentColor" stroke-width="2"/>
      <line x1="20" y1="8" x2="24" y2="3" stroke="currentColor" stroke-width="1.5"/>
      <line x1="12" y1="24" x2="5" y2="36" stroke="currentColor" stroke-width="2"/>
      <line x1="12" y1="24" x2="21" y2="34" stroke="currentColor" stroke-width="2"/>
    </symbol>
  </defs>

  <!-- Background -->
  <rect width="1100" height="620" fill="#fafafa" rx="8"/>

  <!-- Title -->
  <text x="550" y="32" text-anchor="middle" font-size="18" font-weight="bold" fill="#222">Model Architecture: Dual-Player Skeleton + Shuttle Trajectory Fusion</text>

  <!-- ══════════════════════════════════════════════════════════════ -->
  <!-- SKELETON SEQUENCE INPUT -->
  <!-- ══════════════════════════════════════════════════════════════ -->
  <text x="30" y="68" font-size="13" font-weight="bold" fill="#444">Skeleton Sequence Input</text>
  <text x="30" y="84" font-size="10" fill="#888">T = 16 frames centred on hit frame, V = 34 joints (17 per player)</text>

  <!-- Frame boxes -->
  <g transform="translate(30, 94)">
    <!-- t-7 -->
    <rect x="0" y="0" width="42" height="62" rx="3" fill="#e8f0fe" stroke="#90b4e0" stroke-width="1"/>
    <use href="#stick" x="3" y="4" width="16" height="26" color="#4285f4"/>
    <use href="#stick" x="22" y="28" width="16" height="26" color="#ea4335"/>
    <text x="21" y="74" text-anchor="middle" font-size="8" fill="#666">t-7</text>

    <!-- t-6 -->
    <rect x="48" y="0" width="42" height="62" rx="3" fill="#e8f0fe" stroke="#90b4e0" stroke-width="1"/>
    <use href="#stick" x="51" y="4" width="16" height="26" color="#4285f4"/>
    <use href="#stick" x="70" y="28" width="16" height="26" color="#ea4335"/>
    <text x="69" y="74" text-anchor="middle" font-size="8" fill="#666">t-6</text>

    <!-- dots -->
    <text x="108" y="35" font-size="16" fill="#999">...</text>

    <!-- t-2 -->
    <rect x="132" y="0" width="42" height="62" rx="3" fill="#e8f0fe" stroke="#90b4e0" stroke-width="1"/>
    <use href="#stick" x="135" y="4" width="16" height="26" color="#4285f4"/>
    <use href="#stick" x="154" y="28" width="16" height="26" color="#ea4335"/>
    <text x="153" y="74" text-anchor="middle" font-size="8" fill="#666">t-2</text>

    <!-- t-1 -->
    <rect x="180" y="0" width="42" height="62" rx="3" fill="#e8f0fe" stroke="#90b4e0" stroke-width="1"/>
    <use href="#stick" x="183" y="4" width="16" height="26" color="#4285f4"/>
    <use href="#stick" x="202" y="28" width="16" height="26" color="#ea4335"/>
    <text x="201" y="74" text-anchor="middle" font-size="8" fill="#666">t-1</text>

    <!-- HIT FRAME (highlighted) -->
    <rect x="228" y="-6" width="50" height="74" rx="4" fill="#fff3e0" stroke="#e65100" stroke-width="2.5"/>
    <text x="253" y="6" text-anchor="middle" font-size="7" font-weight="bold" fill="#e65100">HIT</text>
    <use href="#stick-hit" x="230" y="8" width="20" height="30" color="#e65100"/>
    <use href="#stick" x="252" y="32" width="16" height="26" color="#ea4335"/>
    <circle cx="258" cy="14" r="3" fill="#fbbc04" stroke="#f57f17" stroke-width="0.8"/>
    <text x="253" y="80" text-anchor="middle" font-size="8" font-weight="bold" fill="#e65100">t0</text>

    <!-- t+1 -->
    <rect x="286" y="0" width="42" height="62" rx="3" fill="#e8f0fe" stroke="#90b4e0" stroke-width="1"/>
    <use href="#stick" x="289" y="4" width="16" height="26" color="#4285f4"/>
    <use href="#stick" x="308" y="28" width="16" height="26" color="#ea4335"/>
    <text x="307" y="74" text-anchor="middle" font-size="8" fill="#666">t+1</text>

    <!-- t+2 -->
    <rect x="334" y="0" width="42" height="62" rx="3" fill="#e8f0fe" stroke="#90b4e0" stroke-width="1"/>
    <use href="#stick" x="337" y="4" width="16" height="26" color="#4285f4"/>
    <use href="#stick" x="356" y="28" width="16" height="26" color="#ea4335"/>
    <text x="355" y="74" text-anchor="middle" font-size="8" fill="#666">t+2</text>

    <!-- dots -->
    <text x="394" y="35" font-size="16" fill="#999">...</text>

    <!-- t+8 -->
    <rect x="418" y="0" width="42" height="62" rx="3" fill="#e8f0fe" stroke="#90b4e0" stroke-width="1"/>
    <use href="#stick" x="421" y="4" width="16" height="26" color="#4285f4"/>
    <use href="#stick" x="440" y="28" width="16" height="26" color="#ea4335"/>
    <text x="439" y="74" text-anchor="middle" font-size="8" fill="#666">t+8</text>
  </g>

  <!-- Player legend -->
  <g transform="translate(30, 185)">
    <rect x="0" y="0" width="10" height="10" rx="2" fill="#4285f4"/>
    <text x="14" y="9" font-size="9" fill="#555">P0 (top-court)</text>
    <rect x="120" y="0" width="10" height="10" rx="2" fill="#ea4335"/>
    <text x="134" y="9" font-size="9" fill="#555">P1 (bottom-court)</text>
    <rect x="250" y="0" width="10" height="10" rx="2" fill="#fbbc04" stroke="#f57f17" stroke-width="0.5"/>
    <text x="264" y="9" font-size="9" fill="#555">Shuttlecock</text>
  </g>

  <!-- Tensor shape annotation -->
  <rect x="30" y="204" width="460" height="22" rx="4" fill="#f5f5f5" stroke="#ddd" stroke-width="1"/>
  <text x="260" y="219" text-anchor="middle" font-size="10" fill="#666">Skeleton tensor: (B, 9, 16, 34) -- 9-dim L2 features, 16 frames, 34 joints</text>

  <!-- Arrow down to Feature Eng -->
  <line x1="260" y1="230" x2="260" y2="258" stroke="#333" stroke-width="1.5" marker-end="url(#arrow)"/>

  <!-- ══════════════════════════════════════════════════════════════ -->
  <!-- FEATURE ENGINEERING -->
  <!-- ══════════════════════════════════════════════════════════════ -->
  <rect x="110" y="260" width="300" height="58" rx="6" fill="#e3f2fd" stroke="#1976d2" stroke-width="1.5"/>
  <text x="260" y="282" text-anchor="middle" font-size="12" font-weight="bold" fill="#1565c0">Feature Engineering (L2)</text>
  <text x="260" y="297" text-anchor="middle" font-size="9" fill="#555">[x, y, vx, vy, ax, ay, dist_net, dist_center, dist_opp]</text>
  <text x="260" y="310" text-anchor="middle" font-size="9" fill="#555">Homography: pixel coords to court metres</text>

  <!-- Arrow down to ST-GCN -->
  <line x1="260" y1="320" x2="260" y2="348" stroke="#333" stroke-width="1.5" marker-end="url(#arrow)"/>

  <!-- ══════════════════════════════════════════════════════════════ -->
  <!-- ST-GCN ENCODER -->
  <!-- ══════════════════════════════════════════════════════════════ -->
  <rect x="110" y="350" width="300" height="78" rx="6" fill="#e8eaf6" stroke="#3f51b5" stroke-width="2"/>
  <text x="260" y="374" text-anchor="middle" font-size="13" font-weight="bold" fill="#283593">ST-GCN Encoder</text>
  <text x="260" y="391" text-anchor="middle" font-size="9" fill="#555">9 blocks: 64-64-64-128-128-128-256-256-256</text>
  <text x="260" y="405" text-anchor="middle" font-size="9" fill="#555">Spatial graph conv + Temporal conv (k=9) + Residual</text>
  <text x="260" y="419" text-anchor="middle" font-size="9" fill="#555">Global avg pool over T, V dims</text>

  <!-- Adjacency info box -->
  <rect x="5" y="360" width="96" height="58" rx="4" fill="#fff" stroke="#9fa8da" stroke-width="1" stroke-dasharray="4,2"/>
  <text x="53" y="376" text-anchor="middle" font-size="9" font-weight="bold" fill="#3f51b5">Adjacency</text>
  <text x="53" y="390" text-anchor="middle" font-size="8" fill="#666">(3, 34, 34)</text>
  <text x="53" y="402" text-anchor="middle" font-size="8" fill="#666">Intra-player</text>
  <text x="53" y="414" text-anchor="middle" font-size="8" fill="#666">Inter-player</text>
  <line x1="101" y1="390" x2="110" y2="390" stroke="#9fa8da" stroke-width="1" stroke-dasharray="3,2"/>

  <!-- Output shape from ST-GCN -->
  <text x="260" y="442" text-anchor="middle" font-size="9" fill="#283593" font-weight="bold">(B, 256)</text>

  <!-- ══════════════════════════════════════════════════════════════ -->
  <!-- SHUTTLE TRAJECTORY BRANCH (right side) -->
  <!-- ══════════════════════════════════════════════════════════════ -->
  <text x="620" y="68" font-size="13" font-weight="bold" fill="#444">Shuttle Trajectory</text>
  <text x="620" y="84" font-size="10" fill="#888">Dense (x, y) positions from TrackNetV4</text>

  <!-- Trajectory visualization box -->
  <rect x="620" y="94" width="440" height="100" rx="6" fill="#fff8e1" stroke="#f9a825" stroke-width="1.5"/>

  <!-- Mini court -->
  <rect x="640" y="104" width="180" height="76" rx="2" fill="none" stroke="#c8e6c9" stroke-width="1"/>
  <line x1="640" y1="142" x2="820" y2="142" stroke="#c8e6c9" stroke-width="1" stroke-dasharray="4,3"/>
  <text x="730" y="140" text-anchor="middle" font-size="7" fill="#aaa">net</text>

  <!-- Trajectory curve with dots -->
  <path d="M660,170 Q700,108 740,130 Q780,155 810,110" fill="none" stroke="#f57f17" stroke-width="2.5" stroke-linecap="round"/>
  <circle cx="660" cy="170" r="3" fill="#fff" stroke="#f57f17" stroke-width="1.5"/>
  <circle cx="680" cy="145" r="3" fill="#fff" stroke="#f57f17" stroke-width="1.5"/>
  <circle cx="700" cy="125" r="3" fill="#fff" stroke="#f57f17" stroke-width="1.5"/>
  <circle cx="720" cy="122" r="3" fill="#fff" stroke="#f57f17" stroke-width="1.5"/>
  <circle cx="740" cy="130" r="3" fill="#fff" stroke="#f57f17" stroke-width="1.5"/>
  <circle cx="760" cy="142" r="3" fill="#fff" stroke="#f57f17" stroke-width="1.5"/>
  <circle cx="780" cy="148" r="3" fill="#fff" stroke="#f57f17" stroke-width="1.5"/>
  <circle cx="810" cy="110" r="4" fill="#fbbc04" stroke="#e65100" stroke-width="2"/>
  <text x="820" y="108" font-size="7" fill="#e65100">t0</text>

  <!-- Annotations -->
  <text x="850" y="120" font-size="10" font-weight="bold" fill="#555">Per frame:</text>
  <text x="850" y="136" font-size="9" fill="#666">x, y position</text>
  <text x="850" y="150" font-size="9" fill="#666">visibility mask</text>
  <text x="850" y="164" font-size="9" fill="#666">normalised to [0,1]</text>

  <!-- Tensor shape -->
  <rect x="620" y="204" width="440" height="22" rx="4" fill="#f5f5f5" stroke="#ddd" stroke-width="1"/>
  <text x="840" y="219" text-anchor="middle" font-size="10" fill="#666">Shuttle tensor: (B, 2, T) -- [x, y] normalised positions</text>

  <!-- Arrow down -->
  <line x1="840" y1="230" x2="840" y2="310" stroke="#333" stroke-width="1.5" marker-end="url(#arrow)"/>

  <!-- ══════════════════════════════════════════════════════════════ -->
  <!-- SHUTTLE TCN ENCODER -->
  <!-- ══════════════════════════════════════════════════════════════ -->
  <rect x="720" y="312" width="240" height="55" rx="6" fill="#fff3e0" stroke="#ef6c00" stroke-width="1.5"/>
  <text x="840" y="334" text-anchor="middle" font-size="12" font-weight="bold" fill="#e65100">Shuttle TCN Encoder</text>
  <text x="840" y="350" text-anchor="middle" font-size="9" fill="#555">3-layer 1D Conv: 2 -&gt; 64 -&gt; 128, kernel=5</text>
  <text x="840" y="362" text-anchor="middle" font-size="9" fill="#555">Output: (B, T, 128) per-frame embeddings</text>

  <!-- ══════════════════════════════════════════════════════════════ -->
  <!-- CROSS-ATTENTION FUSION -->
  <!-- ══════════════════════════════════════════════════════════════ -->

  <!-- Arrow from ST-GCN to cross-attn -->
  <line x1="260" y1="448" x2="260" y2="468" stroke="#333" stroke-width="1.5"/>
  <line x1="260" y1="468" x2="520" y2="468" stroke="#333" stroke-width="1.5" marker-end="url(#arrow)"/>
  <text x="500" y="462" text-anchor="end" font-size="10" font-weight="bold" fill="#283593">Q</text>

  <!-- Arrow from Shuttle TCN to cross-attn -->
  <line x1="840" y1="369" x2="840" y2="468" stroke="#333" stroke-width="1.5"/>
  <line x1="840" y1="468" x2="710" y2="468" stroke="#333" stroke-width="1.5" marker-end="url(#arrow)"/>
  <text x="730" y="462" text-anchor="start" font-size="10" font-weight="bold" fill="#e65100">K, V</text>

  <!-- Cross-Attention box -->
  <rect x="522" y="445" width="186" height="48" rx="6" fill="#f3e5f5" stroke="#7b1fa2" stroke-width="2"/>
  <text x="615" y="465" text-anchor="middle" font-size="12" font-weight="bold" fill="#6a1b9a">Cross-Attention</text>
  <text x="615" y="481" text-anchor="middle" font-size="9" fill="#555">4-head MHA + LayerNorm</text>

  <!-- Residual skip connection -->
  <path d="M260,448 L260,530 L523,530" fill="none" stroke="#999" stroke-width="1.2" stroke-dasharray="5,3" marker-end="url(#arrow-grey)"/>
  <text x="380" y="525" text-anchor="middle" font-size="8" fill="#999">residual (additive)</text>

  <!-- Arrow down from cross-attn -->
  <line x1="615" y1="495" x2="615" y2="520" stroke="#333" stroke-width="1.5" marker-end="url(#arrow)"/>

  <!-- Fused embedding -->
  <rect x="525" y="522" width="180" height="22" rx="4" fill="#f5f5f5" stroke="#bbb" stroke-width="1"/>
  <text x="615" y="537" text-anchor="middle" font-size="10" fill="#555">Fused embedding (B, 256)</text>

  <!-- Arrow down to classifier -->
  <line x1="615" y1="546" x2="615" y2="568" stroke="#333" stroke-width="1.5" marker-end="url(#arrow)"/>

  <!-- ══════════════════════════════════════════════════════════════ -->
  <!-- CLASSIFICATION HEAD -->
  <!-- ══════════════════════════════════════════════════════════════ -->
  <rect x="480" y="570" width="270" height="38" rx="6" fill="#e8f5e9" stroke="#2e7d32" stroke-width="2"/>
  <text x="615" y="594" text-anchor="middle" font-size="13" font-weight="bold" fill="#1b5e20">Prototypical Classifier  --&gt;  17 Shot Types</text>

</svg>
